# xmcd CD database file
#
# Track frame offsets:
#	150
#	8743
#	21691
#	34402
#	52296
#	70703
#	82739
#	99700
#	112233
#	122405
#	138425
#	150620
#	161514
#
# Disc length: 2531 seconds
#
# Revision: 1
# Processed by: cddbd v1.5.1PL0 Copyright (c) Steve Scherf et al.
# Submitted via: jetAudio 5
#
DISCID=ae09e10d
DTITLE=Danny Barnes - Get Myself Together
DYEAR=1900
DGENRE=
TTITLE0=Get Myself Together
TTITLE1=Rat's Ass
TTITLE2=Big Girl Blues
TTITLE3=Get Me Out of Jail
TTITLE4=Sympathy for the Devil
TTITLE5=Cumberland Gap
TTITLE6=Let Your Light Shine On Me
TTITLE7=Cut A Rug
TTITLE8=Corn Kingdom Come
TTITLE9=Wasted Mind
TTITLE10=Get It On Down The Line
TTITLE11=Cat To The Rat
TTITLE12=Big Shoe
EXTD=
EXTT0=
EXTT1=
EXTT2=
EXTT3=
EXTT4=
EXTT5=
EXTT6=
EXTT7=
EXTT8=
EXTT9=
EXTT10=
EXTT11=
EXTT12=
PLAYORDER=
